<svg xmlns="http://www.w3.org/2000/svg" xmlns:xl="http://www.w3.org/1999/xlink" xmlns:dc="http://purl.org/dc/elements/1.1/" version="1.1" viewBox="0 0 100 100" width="100pt" height="100pt"><metadata> Produced by OmniGraffle 6.0.5 <dc:date>2014-05-10 21:09Z</dc:date></metadata><defs/><g stroke="none" stroke-opacity="1" stroke-dasharray="none" fill="none" fill-opacity="1"><title>Canvas 2</title><g><title>Layer 1</title><path d="M 12 91 L 12 95 L 88 95 L 88 91 Z M 23 60 L 35 60 L 35 76 L 23 76 Z M 23 78.5 L 35 78.5 L 35 82 L 23 82 Z M 65 60 L 77 60 L 77 76 L 65 76 Z M 65 78.5 L 77 78.5 L 77 82 L 65 82 Z M 37 29 L 49 29 L 49 39 L 37 39 Z M 37 41.5 L 49 41.5 L 49 45 L 37 45 Z M 51 29 L 63 29 L 63 39 L 51 39 Z M 51 41.5 L 63 41.5 L 63 45 L 51 45 Z M 42 89.125 L 42 65.008025 L 42 65 L 41.999996 65 C 41.999996 62.952624 42.781048 60.905248 44.343152 59.343152 C 47.467344 56.218944 52.532656 56.218944 55.656848 59.343152 C 57.218952 60.905248 58.000004 62.952624 58.000004 65 C 58.000004 65.002675 58.000003 65.00535 58 65.008025 L 58 89.125 L 84 89.125 L 84 40 L 95 40 L 50 5 L 32 19 L 32 5 L 20 5 L 20 28.333333 L 5 40 L 16 40 L 16 89.125 Z" fill="black"/></g></g></svg>